# xmcd CD database file
#
# Track frame offsets:
#	150
#	13243
#	26248
#	39377
#	53491
#	66287
#	78529
#	94035
#	108159
#	122364
#	137398
#	150126
#	163087
#	175878
#	191444
#	204885
#	218737
#	233940
#	248623
#	262729
#	274862
#	287580
#	301570
#	316390
#
# Disc length: 4412 seconds
#
# Revision: 0
# Processed by: cddbd v1.5.2PL0 Copyright (c) Steve Scherf et al.
# Submitted via: CDex 1.40PlusFr
#
DISCID=2f113a18
DTITLE=Female Blues Singers - Oh Run Into Me But Don't Hurt Me
DYEAR=2007
DGENRE=Blues
TTITLE0=Anna Jones  Trixie Blues
TTITLE1=Lena Henry  Low Down Despondent Blues
TTITLE2=Rosa Henderson  Get It Fixed
TTITLE3=Virgina Liston  I'm Gonna Get Me A Man
TTITLE4=Magaret Carter  Come Get Me Papa Before I Faint
TTITLE5=Margaret Carter  I Want Plenty Grease In My Flying Pan
TTITLE6=Monette Moore  Somebody's Been Loving My Babe
TTITLE7=Martha Copelend  Stole My Man Blues
TTITLE8=Margaret Johnson  Dead Drunk Blues
TTITLE9=Margaret Johnson  Second Handed Blues
TTITLE10=Coletha Simpson  Down South Blues
TTITLE11=Ivy Smith  Third Alley Blues
TTITLE12=Ivy Smith  Sad And Blues
TTITLE13=Lil Johnson  You'll Never Miss Your Jelly
TTITLE14=Lil Johnson  Never Let Your Left Hand Know
TTITLE15=Lucille Bogan  Pot Hound Blues
TTITLE16=Lucille Bogan  Coffee Grindin' Blues
TTITLE17=Jenny Pope  Doggin' Me Around Blues
TTITLE18=Jenny Pope  Whiskey Drinking Blues
TTITLE19=Jenny Pope  Bull Frog Blues
TTITLE20=Jenny Pope  Tennesse Workhouse Blues
TTITLE21=Lucille Bogan  Black Angel Blues
TTITLE22=Lucille Bogan  Tricks Ain't Walking Anymore
TTITLE23=Memphis Minnie  I'm Talking About You 2
EXTD=YEAR: 2007 ID3G: 0
EXTT0=
EXTT1=
EXTT2=
EXTT3=
EXTT4=
EXTT5=
EXTT6=
EXTT7=
EXTT8=
EXTT9=
EXTT10=
EXTT11=
EXTT12=
EXTT13=
EXTT14=
EXTT15=
EXTT16=
EXTT17=
EXTT18=
EXTT19=
EXTT20=
EXTT21=
EXTT22=
EXTT23=
PLAYORDER=
